<svg viewBox="0 0 50 38" fill="none" xmlns="http://www.w3.org/2000/svg">
  <path fill-rule="evenodd" clip-rule="evenodd" d="M46.7846 34.8655C47.3459 35.6091 48.0308 36.2868 48.8299 36.7669C49.1058 36.9175 49.3912 37.0305 49.6575 37.1058L50 37.1434V37.9906H35.9874V37.1434C35.9874 37.1434 37.6522 37.2187 38.8318 36.3716C39.6309 35.8162 40.2397 34.8184 39.9543 33.1241C39.8307 32.4181 39.669 31.891 39.6119 31.7592C38.3942 28.9165 37.1861 26.0738 35.997 23.2217C35.9447 23.3252 35.8923 23.4264 35.84 23.5275C35.7877 23.6287 35.7354 23.73 35.683 23.8335C34.9807 25.1872 34.2819 26.5392 33.5836 27.8902C32.6455 29.705 31.7083 31.5181 30.7648 33.3312C30.7648 33.3422 30.7616 33.3468 30.7589 33.3506C30.757 33.3532 30.7553 33.3555 30.7553 33.3594C30.4991 33.8602 30.2385 34.361 29.9794 34.8589C29.8538 35.1004 29.7285 35.3411 29.6043 35.5809C29.1857 36.381 28.7766 37.1811 28.3676 37.9812L26.9311 37.9906C25.1807 33.4441 23.4304 28.9071 21.6705 24.3513L20.938 22.3839C20.8619 22.1957 20.7834 22.0074 20.7049 21.8192C20.6264 21.6309 20.548 21.4427 20.4718 21.2544L19.7298 19.2871C19.3036 18.1931 18.8781 17.1005 18.4529 16.0087C17.3122 13.0799 16.1738 10.157 15.0304 7.22913L10.5594 19.2871C10.4293 19.6414 10.2993 19.9962 10.1692 20.3512C9.68053 21.6842 9.19064 23.0207 8.69483 24.3513L6.22146 31.0721C5.83143 32.4275 5.83143 33.4818 6.05023 34.3384C6.87785 37.3223 10.997 37.0964 10.997 37.0964V38H0V37.0964C0 37.0964 2.36872 36.9834 4.29033 33.1429L9.4083 19.2871L14.4502 5.73247L12.2241 0.0282388H17.9034C19.2773 3.58593 20.5086 6.76889 21.5745 9.52449C22.4347 11.7485 23.1873 13.6941 23.8204 15.3337C24.0038 15.803 24.1931 16.2868 24.3885 16.7864C25.9058 20.6651 27.7944 25.4929 30.2131 31.8722C30.7213 30.9097 31.2665 29.8788 31.8368 28.8005C32.8783 26.8311 34.0036 24.7032 35.1408 22.544C35.1931 22.4404 35.2478 22.3369 35.3025 22.2334C35.3572 22.1298 35.4119 22.0263 35.4642 21.9227C34.4911 19.594 33.5242 17.2637 32.5572 14.9331C31.1517 11.5455 29.7459 8.15727 28.32 4.77236C28.1535 4.38172 27.9894 3.99108 27.8253 3.60045C27.6612 3.20981 27.4971 2.81917 27.3307 2.42854C26.9985 1.63982 26.657 0.832373 26.3153 0.0248792L26.3128 0.0188259H31.954C32.5875 1.54126 33.206 3.0276 33.8079 4.47416C35.5467 8.65325 37.1475 12.5003 38.575 15.9267C41.8379 9.54471 44.511 4.11345 44.5205 3.25687C44.5301 2.46619 44.121 1.9673 44.121 1.9673C43.731 1.49666 43.0746 1.23309 42.1423 1.10131C42.0091 1.09661 41.8807 1.08955 41.7523 1.08249C41.6239 1.07543 41.4954 1.06837 41.3623 1.06366V0.00941293H49.5434C49.6956 0 49.8478 0 50 0V1.02601C49.9678 1.02601 49.9356 1.02821 49.9024 1.03048C49.8668 1.03291 49.83 1.03542 49.7907 1.03542C49.7051 1.03542 49.6195 1.04484 49.5434 1.05425C47.8501 1.36487 46.4327 3.08744 44.9201 5.98662C43.9498 7.8551 42.9842 9.72358 42.0186 11.5921C41.0531 13.4605 40.0875 15.329 39.1172 17.1974C42.6275 25.6314 44.9486 31.2321 45.4243 32.4652C45.4243 32.4652 45.7572 33.5194 46.7846 34.8655ZM19.6158 22.3369H10.7403C10.883 21.9792 11.0257 21.6215 11.1588 21.2732H19.1973C19.2801 21.4754 19.3597 21.6807 19.4399 21.8874C19.4978 22.0367 19.556 22.1868 19.6158 22.3369Z" fill="url(#paint0_linear_33_8)"/>
  <defs>
    <linearGradient id="paint0_linear_33_8" x1="25.0065" y1="0.184305" x2="25.0065" y2="37.9286" gradientUnits="userSpaceOnUse">
      <stop offset="0.0891892" stop-color="#AE6E56"/>
      <stop offset="0.1151" stop-color="#C99179"/>
      <stop offset="0.1416" stop-color="#DFAC95"/>
      <stop offset="0.1684" stop-color="#EFC0A9"/>
      <stop offset="0.195" stop-color="#F8CCB5"/>
      <stop offset="0.2216" stop-color="#FBD0B9"/>
      <stop offset="0.2635" stop-color="#F6CAB3"/>
      <stop offset="0.3198" stop-color="#E9BAA2"/>
      <stop offset="0.3324" stop-color="#E5B59D"/>
      <stop offset="0.3355" stop-color="#E0AE96"/>
      <stop offset="0.3492" stop-color="#CC957B"/>
      <stop offset="0.365" stop-color="#BC8065"/>
      <stop offset="0.3834" stop-color="#B07054"/>
      <stop offset="0.4062" stop-color="#A76449"/>
      <stop offset="0.4382" stop-color="#A25E42"/>
      <stop offset="0.527" stop-color="#A15C40"/>
      <stop offset="0.586" stop-color="#B96F50"/>
      <stop offset="0.6559" stop-color="#CF7F5F"/>
      <stop offset="0.7237" stop-color="#DC8A68"/>
      <stop offset="0.7865" stop-color="#E08D6B"/>
      <stop offset="0.7888" stop-color="#DD8B69"/>
      <stop offset="0.8077" stop-color="#C7795A"/>
      <stop offset="0.8298" stop-color="#B66C4E"/>
      <stop offset="0.8571" stop-color="#AA6346"/>
      <stop offset="0.8949" stop-color="#A35D41"/>
      <stop offset="0.9944" stop-color="#A15C40"/>
    </linearGradient>
  </defs>
</svg>
